<svg xmlns="http://www.w3.org/2000/svg" viewBox="0 0 199.78 199.91"><defs><style>.cls-1{fill:#3aaa35;}</style></defs><title>sock-green-pair</title><g id="Capa_2" data-name="Capa 2"><g id="Capa_1-2" data-name="Capa 1"><path class="cls-1" d="M199.69,82.05c0,12,0,23.94,0,35.91-.05,16.29-6.24,29.84-19.08,39.84q-23,17.92-46.68,35c-16.31,11.72-37.52,8.59-50.55-6.9-12-14.27-11-36.27,2.8-49.85,10.21-10,22.47-17.63,33.89-26.22,3.54-2.66,4.93-5.39,4.87-9.84-.25-19.28,0-38.57-.19-57.85,0-3.56.64-4.88,4.58-4.84q32.92.3,65.87,0c3.93,0,4.63,1.27,4.57,4.83C199.57,55.44,199.69,68.75,199.69,82.05Z"/><path class="cls-1" d="M112.55,69.13c0,9-.1,18,.06,26.92a6.74,6.74,0,0,1-3.12,6.2c-9.49,7-19,13.93-28.16,21.38-17.57,14.37-23.13,38-14.3,59,.61,1.47,1.85,2.85,0,4.42-11.71,9.93-24.56,16-40.26,11.1C13,193.82,4,184.68.94,170.47c-3.09-14.58,1.53-27.2,12.63-36.71,10.07-8.62,21-16.24,31.77-24,3.4-2.47,4.81-5,4.75-9.4-.28-19.43,0-38.88-.22-58.31,0-3.79,1-4.73,4.73-4.69,17.61.19,35.24.23,52.86,0,4.31-.06,5.3,1.4,5.17,5.41C112.36,51.51,112.55,60.33,112.55,69.13Z"/><path class="cls-1" d="M162.27,25.12c-11.29,0-22.57-.08-33.85.06-2.8,0-3.55-.77-3.67-3.59C124,5.57,126.56-.74,145.58.07,159,.64,172.46.15,185.9.19c8.84,0,13.72,5,13.79,13.92.1,11,.1,11-11,11Z"/><path class="cls-1" d="M81.42,25.12c-9.3,0-18.61-.1-27.9.07-2.86,0-3.51-.86-3.64-3.64C49.17,5.51,51.74-.76,70.78.07c12.93.57,25.91.23,38.86,0,4.16,0,6.5.38,4.09,5.25-1.51,3.05-1.15,6.49-1.17,9.79-.06,10,0,10-10.22,10Z"/></g></g></svg>