<svg xmlns="http://www.w3.org/2000/svg" viewBox="0 0 124.73 199.91"><defs><style>.cls-1{fill:#e30613;}</style></defs><title>Recurso 6</title><g id="Capa_2" data-name="Capa 2"><g id="Capa_1-2" data-name="Capa 1"><path class="cls-1" d="M124.65,82.05c0,12,0,23.94,0,35.91,0,16.29-6.23,29.84-19.08,39.84q-23,17.92-46.67,35c-16.31,11.72-37.52,8.59-50.56-6.9-12-14.27-11-36.27,2.8-49.86C21.35,126,33.61,118.43,45,109.84c3.54-2.66,4.93-5.39,4.87-9.84-.25-19.28,0-38.57-.18-57.86,0-3.55.63-4.87,4.57-4.83q32.94.3,65.87,0c3.94,0,4.64,1.27,4.58,4.83C124.53,55.44,124.65,68.75,124.65,82.05Z"/><path class="cls-1" d="M87.22,25.12c-11.28,0-22.57-.08-33.85.06-2.8,0-3.54-.77-3.67-3.59C49,5.57,51.51-.74,70.54.07,84,.64,97.42.15,110.86.19c8.84,0,13.72,5,13.79,13.92.09,11,.09,11-11,11Z"/></g></g></svg>